<?xml version="1.0" encoding="UTF-8" standalone="no"?>
<svg
   xmlns:dc="http://purl.org/dc/elements/1.1/"
   xmlns:cc="http://creativecommons.org/ns#"
   xmlns:rdf="http://www.w3.org/1999/02/22-rdf-syntax-ns#"
   xmlns:svg="http://www.w3.org/2000/svg"
   xmlns="http://www.w3.org/2000/svg"
   xmlns:sodipodi="http://sodipodi.sourceforge.net/DTD/sodipodi-0.dtd"
   xmlns:inkscape="http://www.inkscape.org/namespaces/inkscape"
   version="1.1"
   x="0px"
   y="0px"
   width="86px"
   height="86px"
   viewBox="0 0 86 86"
   enable-background="new 0 0 86 86"
   xml:space="preserve"
   id="svg17"
   sodipodi:docname="harbour-webcontrol.svg"
   inkscape:version="1.0.1 (3bc2e813f5, 2020-09-07)"><metadata
   id="metadata23"><rdf:RDF><cc:Work
       rdf:about=""><dc:format>image/svg+xml</dc:format><dc:type
         rdf:resource="http://purl.org/dc/dcmitype/StillImage" /></cc:Work></rdf:RDF></metadata><defs
   id="defs21">
	<linearGradient
   id="SVGID_1_"
   gradientUnits="userSpaceOnUse"
   x1="0.7171"
   y1="85.2833"
   x2="73.1939"
   y2="12.8066">
		<stop
   offset="0"
   style="stop-color:#18ffff;stop-opacity:1"
   id="stop3" />
		<stop
   offset="0.6976"
   style="stop-color:#00b8d4;stop-opacity:1"
   id="stop5" />
		<stop
   offset="1"
   style="stop-color:#00e5ff;stop-opacity:1"
   id="stop7" />
	</linearGradient>
	
	
</defs><sodipodi:namedview
   pagecolor="#ffffff"
   bordercolor="#666666"
   borderopacity="1"
   objecttolerance="10"
   gridtolerance="10"
   guidetolerance="10"
   inkscape:pageopacity="0"
   inkscape:pageshadow="2"
   inkscape:window-width="1680"
   inkscape:window-height="1021"
   id="namedview19"
   showgrid="false"
   showguides="false"
   inkscape:zoom="5.8788528"
   inkscape:cx="13.968456"
   inkscape:cy="52.244286"
   inkscape:window-x="1920"
   inkscape:window-y="15"
   inkscape:window-maximized="1"
   inkscape:current-layer="svg17"
   inkscape:document-rotation="0" />
<g
   id="Layer_2"
   display="none">
</g>
<path
   fill="url(#SVGID_1_)"
   d="M 43,0.3 C 19.418,0.3 0.3,19.418 0.3,43 v 41.277 c 0,0.786 0.637,1.423 1.423,1.423 H 43 C 66.585,85.7 85.7,66.582 85.7,43 85.7,19.418 66.585,0.3 43,0.3 Z"
   id="path10"
   style="fill:url(#SVGID_1_)" />
<path
   id="path8-3"
   style="opacity:0.89962776;fill:#ffffff;stroke-width:4.85714"
   d="M 43 11 C 25.326856 11 11 25.326856 11 43 C 11 45.972445 11.413565 48.847241 12.171875 51.578125 C 12.563373 51.329794 12.882106 50.966396 13.068359 50.515625 L 14.003906 48.261719 C 14.777314 46.394553 16.923844 45.505889 18.791016 46.279297 L 22.798828 47.939453 C 24.667029 48.712861 25.556612 50.861346 24.783203 52.728516 L 23.849609 54.982422 C 23.458757 55.925855 23.735274 57.012434 24.527344 57.65625 C 25.925907 58.791482 27.209677 60.075249 28.341797 61.470703 C 28.984577 62.26485 30.07219 62.541244 31.015625 62.150391 L 33.271484 61.216797 C 34.360496 60.766567 35.536776 60.893974 36.488281 61.4375 C 36.315953 61.239529 36.147306 61.034255 35.964844 60.857422 C 35.346223 60.257819 33.60828 58.99046 32.125 58.072266 C 30.64178 57.154125 29.145981 56.089806 28.8125 55.634766 C 28.25986 54.87963 28.217987 54.412582 28.642578 53.017578 C 29.416398 50.469774 30.334451 49.047315 32.125 47.4375 C 33.063711 46.593532 34.006894 45.891914 34.214844 45.875 C 34.422844 45.85809 33.021477 45.43189 30.910156 45 C 28.798956 44.567269 25.704186 43.657984 24.107422 43.080078 C 21.1876 42.02358 17.252912 39.810264 15.75 38.205078 C 15.68641 38.137058 15.627489 38.087596 15.572266 38.027344 C 17.725578 29.449899 23.766486 22.422972 31.777344 19.035156 C 33.453515 18.326197 35.185755 17.837918 37.009766 17.464844 C 37.918315 17.279153 38.856822 17.210594 39.794922 17.115234 C 40.167992 17.076374 40.641168 17.137634 41.017578 17.115234 C 41.062378 17.293702 40.747795 17.928188 40.322266 18.857422 C 37.612815 24.776481 37.458026 31.714797 39.972656 35.419922 C 40.427696 36.091686 40.839844 36.729391 40.839844 36.8125 C 40.839844 36.89556 40.349802 36.982422 39.794922 36.982422 C 38.492332 36.982422 37.258814 36.191642 34.740234 34.197266 C 33.621385 33.311299 32.170942 32.567718 31.607422 32.455078 C 30.722512 32.2783 30.484625 32.355105 29.339844 33.5 C 28.274735 34.564919 27.947266 35.140327 27.947266 36.115234 C 27.947266 39.812222 32.332034 42.743335 40.490234 44.472656 C 51.569374 46.820816 54.301822 48.93395 54.607422 54.759766 C 54.991102 62.065172 51.098988 67.575381 42.580078 71.839844 C 41.563298 72.349005 40.916844 72.540552 40.490234 72.705078 C 40.301204 72.688168 40.161146 72.721988 39.972656 72.705078 C 39.900156 72.479202 39.794922 71.957708 39.794922 70.964844 C 39.794922 70.587754 39.768371 70.209545 39.740234 69.832031 C 39.396812 70.781309 38.69717 71.600943 37.738281 71.998047 L 35.482422 72.931641 C 35.032489 73.118331 34.668506 73.435751 34.419922 73.826172 C 37.151498 74.584898 40.02671 75 43 75 C 60.67314 75 75 60.673142 75 43 C 75 25.326858 60.67314 11 43 11 z M 65.800781 30.181641 C 65.85908 30.166596 65.905817 30.167946 65.9375 30.1875 C 66.592469 30.592346 69.061638 35.942864 69.767578 38.552734 C 70.679028 41.922093 70.613069 47.750547 69.767578 51.097656 C 69.445798 52.371585 69.039534 53.566502 68.902344 53.714844 C 68.765204 53.863188 68.262944 53.009744 67.677734 51.972656 C 67.092455 50.935732 65.223522 48.729099 63.669922 47.089844 C 59.185512 42.357889 58.478981 39.891741 60.357422 36.115234 C 61.245533 34.329892 64.926305 30.407305 65.800781 30.181641 z " /><path
   id="path879"
   style="fill:#ffffff;opacity:0.8"
   d="M 16.193359 50 C 14.943748 50.009994 13.759502 50.755141 13.251953 51.980469 L 12.435547 53.951172 C 12.094459 54.776676 11.250332 55.280029 10.361328 55.1875 C 8.7937771 55.024214 7.2055957 55.024213 5.6425781 55.1875 C 4.7535734 55.28094 3.9064475 54.77863 3.5644531 53.953125 L 2.7480469 51.978516 C 2.3090422 50.919012 1.3586305 50.229735 0.30078125 50.054688 L 0.30078125 67.654297 C 3.825168 65.036427 8.5885938 64.270194 12.939453 66.072266 C 19.526255 68.80006 22.653575 76.35265 19.925781 82.939453 C 19.508502 83.946918 18.966046 84.862179 18.34375 85.699219 L 35.949219 85.699219 C 35.774984 84.640732 35.0821 83.689888 34.019531 83.25 L 32.046875 82.433594 C 31.22137 82.0916 30.719971 81.250334 30.8125 80.361328 C 30.975786 78.792869 30.973834 77.204549 30.810547 75.640625 C 30.715297 74.751621 31.220463 73.907355 32.046875 73.564453 L 34.021484 72.748047 C 35.60083 72.093993 36.41082 70.142336 35.755859 68.556641 L 34.302734 65.048828 C 33.626002 63.416868 31.746009 62.638627 30.111328 63.314453 L 28.138672 64.130859 C 27.313167 64.472855 26.361261 64.231988 25.798828 63.537109 C 24.808223 62.316087 23.684681 61.192547 22.460938 60.199219 C 21.767876 59.63588 21.527146 58.684879 21.869141 57.859375 L 22.685547 55.886719 C 23.36228 54.252945 22.583895 52.373998 20.949219 51.697266 L 17.443359 50.244141 C 17.034916 50.074958 16.609896 49.996669 16.193359 50 z " /></svg>
